#!OML:ASF I:\Actors\actors\Patient Classification 2\Patient 1\Session 1\actor1.ASF
:FULLY-SPECIFIED
:DEGREES
158
root -1.61345 18.7651 5.32082 2.99964 1.00821 -2.8375
lowerback 17.3741 -1.23953 3.96356
upperback 4.97223 -0.908247 0.600049
thorax -4.45352 -0.459852 -1.42214
lowerneck -21.7814 -0.942752 -1.41427
upperneck 18.6144 -1.64224 3.42555
head 9.51471 -0.460141 1.19114
rclavicle 6.79595e-015 -6.18717e-015
rhumerus -54.8454 53.084 -127.724
rradius 116.614
rwrist -8.66115
rhand 0.265164 -25.1243
rfingers 7.12502
rthumb 25.8443 -53.3883
lclavicle 6.79595e-015 -6.18717e-015
lhumerus -37.1008 -50.8577 125.515
lradius 95.2503
lwrist 61.1357
lhand 1.69205 10.0326
lfingers 7.12502
lthumb 27.21 38.0902
rfemur 3.79744 0.157463 20.6983
rtibia -3.97569e-015
rfoot -17.456 -14.3849
rtoes -6.15485
lfemur -9.58956 -5.25044 -7.73448
ltibia 21.1525
lfoot -16.9078 10.6639
ltoes -57.7359
159
root -1.58839 18.7671 5.32982 3.00949 1.1387 -2.82624
lowerback 17.4517 -1.27185 3.93785
upperback 5.04095 -0.95446 0.563421
thorax -4.42425 -0.480811 -1.43633
lowerneck -21.7425 -0.943879 -1.37566
upperneck 18.6974 -1.65866 3.42343
head 9.53716 -0.464868 1.18223
rclavicle 9.57894e-015 -4.72114e-015
rhumerus -54.8454 53.084 -127.724
rradius 116.614
rwrist -8.66115
rhand 0.265164 -25.1243
rfingers 7.12502
rthumb 25.8443 -53.3883
lclavicle 9.57894e-015 -4.72114e-015
lhumerus -36.8756 -51.44 125.801
lradius 95.5645
lwrist 62.0549
lhand 3.03529 10.67
lfingers 7.12502
lthumb 28.4943 38.5196
rfemur 3.83315 0.0261104 20.6013
rtibia 1.82882e-014
rfoot -17.4474 -14.3787
rtoes -6.0814
lfemur -9.65224 -5.26728 -7.82551
ltibia 21.2382
lfoot -16.934 10.5228
ltoes -57.7273
160
root -1.56092 18.7695 5.33838 3.03945 1.21101 -2.81892
lowerback 17.5593 -1.27309 3.88479
upperback 5.09548 -0.963403 0.5206
thorax -4.42371 -0.484098 -1.44893
lowerneck -21.7429 -0.935857 -1.23284
upperneck 18.8139 -1.67376 3.32209
head 9.5765 -0.472349 1.12191
rclavicle -8.19987e-016 -2.48481e-015
rhumerus -54.8454 53.084 -127.724
rradius 116.614
rwrist -8.66115
rhand 0.265164 -25.1243
rfingers 7.12502
rthumb 25.8443 -53.3883
lclavicle -8.19987e-016 -2.48481e-015
lhumerus -36.6757 -52.095 126.02
lradius 95.8602
lwrist 62.8145
lhand 4.31116 11.226
lfingers 7.12502
lthumb 29.7127 38.8649
rfemur 3.842 -0.0464041 20.4975
rtibia -5.56597e-015
rfoot -17.4458 -14.3833
rtoes -6.11962
lfemur -9.69975 -5.28277 -7.9216
ltibia 21.2853
lfoot -16.9331 10.4481
ltoes -57.6998
161
root -1.52856 18.774 5.34667 3.14995 1.2436 -2.83566
lowerback 17.5442 -1.26573 3.84173
upperback 5.15436 -0.965266 0.485495
thorax -4.35309 -0.48292 -1.46211
lowerneck -21.7591 -0.910932 -1.21338
upperneck 18.9327 -1.66103 3.3716
head 9.62143 -0.457965 1.13867
rclavicle -1.56543e-015 -9.74045e-015
rhumerus -54.8454 53.084 -127.724
rradius 116.614
rwrist -8.66115
rhand 0.265164 -25.1243
rfingers 7.12502
rthumb 25.8443 -53.3883
lclavicle -1.56543e-015 -9.74045e-015
lhumerus -36.4132 -52.8424 126.171
lradius 96.1438
lwrist 63.3719
lhand 5.38733 11.5631
lfingers 7.12502
lthumb 30.7393 39.0139
rfemur 3.75281 -0.0767953 20.4051
rtibia -3.97569e-015
rfoot -17.3753 -14.455
rtoes -6.60323
lfemur -9.83183 -5.28057 -8.00438
ltibia 21.3354
lfoot -16.9262 10.4566
ltoes -57.7006
162
root -1.51791 18.7718 5.37208 2.88742 1.61356 -2.85944
lowerback 17.6871 -1.31267 3.46451
upperback 5.35159 -1.08405 0.567509
thorax -4.21818 -0.536095 -1.13657
lowerneck -21.6939 -0.916052 -1.34765
upperneck 18.9882 -1.67745 3.58638
head 9.63328 -0.450184 1.23399
rclavicle -4.47266e-015 -1.39149e-014
rhumerus -54.8454 53.084 -127.724
rradius 116.614
rwrist -8.66115
rhand 0.265164 -25.1243
rfingers 7.12502
rthumb 25.8443 -53.3883
lclavicle -4.47266e-015 -1.39149e-014
lhumerus -36.1628 -53.6221 126.351
lradius 96.45
lwrist 63.712
lhand 6.19398 11.7157
lfingers 7.12502
lthumb 31.5081 39.019
rfemur 4.25281 -0.453978 20.4276
rtibia 1.11319e-014
rfoot -17.5695 -14.293
rtoes -6.3583
lfemur -9.59171 -5.04924 -7.99046
ltibia 21.4153
lfoot -16.8277 9.83688
ltoes -57.7473
163
root -1.47737 18.7734 5.37904 2.94296 1.59364 -2.87562
lowerback 17.7646 -1.29771 3.39834
upperback 5.39218 -1.07588 0.522958
thorax -4.21535 -0.531375 -1.1473
lowerneck -21.5244 -0.908362 -1.40375
upperneck 19.0212 -1.6974 3.7829
head 9.61793 -0.441727 1.30928
rclavicle 1.00386e-014 -9.54166e-015
rhumerus -54.8454 53.084 -127.724
rradius 116.614
rwrist -8.66115
rhand 0.265164 -25.1243
rfingers 7.12502
rthumb 25.8443 -53.3883
lclavicle 1.00386e-014 -9.54166e-015
lhumerus -36.0709 -54.4146 126.589
lradius 96.7792
lwrist 63.9456
lhand 6.82415 11.9688
lfingers 7.12502
lthumb 32.1083 39.153
rfemur 4.21483 -0.43131 20.3014
rtibia -7.95139e-016
rfoot -17.6063 -14.2435
rtoes -5.9319
lfemur -9.69515 -4.92617 -8.10094
ltibia 21.5372
lfoot -16.8971 9.68948
ltoes -57.6524
164
root -1.41535 18.7788 5.37356 3.20081 1.34434 -2.88924
lowerback 17.7856 -1.24209 3.55626
upperback 5.34617 -0.981579 0.394671
thorax -4.27527 -0.486419 -1.39194
lowerneck -21.3275 -0.859142 -1.32964
upperneck 18.9978 -1.67541 3.87524
head 9.57434 -0.417403 1.33208
rclavicle 8.39865e-015 2.28602e-015
rhumerus -54.8454 53.084 -127.724
rradius 116.614
rwrist -8.66115
rhand 0.265164 -25.1243
rfingers 7.12502
rthumb 25.8443 -53.3883
lclavicle 8.39865e-015 2.28602e-015
lhumerus -36.0969 -55.3057 126.921
lradius 97.1403
lwrist 64.066
lhand 7.17596 12.3775
lfingers 7.12502
lthumb 32.4432 39.4936
rfemur 3.8333 -0.174619 20.0778
rtibia 5.56597e-015
rfoot -17.4843 -14.3489
rtoes -5.93293
lfemur -10.0237 -4.9236 -8.30273
ltibia 21.6789
lfoot -17.036 9.92993
ltoes -57.5139
165
root -1.36178 18.7825 5.37484 3.34182 1.20068 -2.88923
lowerback 17.8087 -1.14922 3.45645
upperback 5.38764 -0.878986 0.374805
thorax -4.23734 -0.435034 -1.37829
lowerneck -21.1946 -0.851268 -1.30652
upperneck 18.9242 -1.68599 3.9437
head 9.52566 -0.414654 1.34986
rclavicle -2.5345e-015 5.46658e-015
rhumerus -54.8454 53.084 -127.724
rradius 116.614
rwrist -8.66115
rhand 0.265164 -25.1243
rfingers 7.12502
rthumb 25.8443 -53.3883
lclavicle -2.5345e-015 5.46658e-015
lhumerus -36.0208 -56.2642 127.302
lradius 97.5046
lwrist 63.974
lhand 7.39082 12.7499
lfingers 7.12502
lthumb 32.6476 39.8238
rfemur 3.65534 -0.0288311 19.8777
rtibia -3.97569e-015
rfoot -17.4377 -14.3817
rtoes -5.83172
lfemur -10.2449 -4.81319 -8.48705
ltibia 21.8616
lfoot -17.0926 9.95253
ltoes -57.4237
166
root -1.31657 18.7844 5.38127 3.37908 1.13814 -2.85978
lowerback 17.8786 -1.03029 3.13998
upperback 5.48704 -0.775411 0.421876
thorax -4.15977 -0.382151 -1.17102
lowerneck -21.1898 -0.897055 -1.43163
upperneck 18.9804 -1.75131 4.11356
head 9.54954 -0.43372 1.42104
rclavicle -5.2181e-015 -1.88845e-015
rhumerus -54.8454 53.084 -127.724
rradius 116.614
rwrist -8.66115
rhand 0.265164 -25.1243
rfingers 7.12502
rthumb 25.8443 -53.3883
lclavicle -5.2181e-015 -1.88845e-015
lhumerus -35.821 -57.1106 127.63
lradius 97.8007
lwrist 63.7143
lhand 7.72706 12.9766
lfingers 7.12502
lthumb 32.9675 39.9837
rfemur 3.64658 0.0319738 19.686
rtibia -9.54166e-015
rfoot -17.4535 -14.3581
rtoes -5.77077
lfemur -10.3498 -4.61993 -8.67137
ltibia 22.0429
lfoot -17.0843 9.7864
ltoes -57.3985
167
root -1.27613 18.7858 5.39116 3.32689 1.21847 -2.83806
lowerback 18.0499 -0.953493 2.82532
upperback 5.58114 -0.722668 0.465791
thorax -4.14432 -0.35524 -0.956319
lowerneck -21.2041 -0.957358 -1.60394
upperneck 19.0991 -1.8447 4.37039
head 9.60157 -0.458191 1.52718
rclavicle 7.40473e-015 -3.77691e-015
rhumerus -54.8454 53.084 -127.724
rradius 116.614
rwrist -8.66115
rhand 0.265164 -25.1243
rfingers 7.12502
rthumb 25.8443 -53.3883
lclavicle 7.40473e-015 -3.77691e-015
lhumerus -35.6645 -57.752 127.933
lradius 98.0204
lwrist 63.2459
lhand 8.19439 13.0531
lfingers 7.12502
lthumb 33.4118 39.9655
rfemur 3.783 -0.0502007 19.5331
rtibia 1.59028e-014
rfoot -17.5281 -14.3069
rtoes -5.83825
lfemur -10.3719 -4.39769 -8.82129
ltibia 22.2066
lfoot -17.0656 9.45706
ltoes -57.3783
168
root -1.24069 18.7861 5.40435 3.19274 1.44785 -2.87089
lowerback 18.2902 -0.917915 2.5022
upperback 5.68347 -0.721949 0.538342
thorax -4.15786 -0.354317 -0.69472
lowerneck -21.0905 -1.00014 -1.64796
upperneck 19.0787 -1.937 4.57022
head 9.58029 -0.482271 1.59084
rclavicle 1.6847e-014 -5.96354e-015
rhumerus -54.8454 53.084 -127.724
rradius 116.614
rwrist -8.66115
rhand 0.265164 -25.1243
rfingers 7.12502
rthumb 25.8443 -53.3883
lclavicle 1.6847e-014 -5.96354e-015
lhumerus -35.5382 -58.2225 128.165
lradius 98.1835
lwrist 62.628
lhand 8.67314 12.981
lfingers 7.12502
lthumb 33.8668 39.7943
rfemur 4.05743 -0.27829 19.4689
rtibia 6.36111e-015
rfoot -17.6667 -14.1917
rtoes -5.65658
lfemur -10.3333 -4.09714 -8.88286
ltibia 22.3765
lfoot -16.9904 8.94698
ltoes -57.4019
169
root -1.19519 18.7886 5.41017 3.18799 1.49986 -2.905
lowerback 18.4212 -0.846082 2.22542
upperback 5.79442 -0.672671 0.580266
thorax -4.104 -0.329268 -0.503411
lowerneck -21.0025 -1.0115 -1.61303
upperneck 19.0003 -1.99379 4.70873
head 9.5407 -0.491701 1.62448
rclavicle 1.59028e-014 5.96354e-016
rhumerus -54.8454 53.084 -127.724
rradius 116.614
rwrist -8.66115
rhand 0.265164 -25.1243
rfingers 7.12502
rthumb 25.8443 -53.3883
lclavicle 1.59028e-014 5.96354e-016
lhumerus -35.2196 -58.5539 128.097
lradius 98.3559
lwrist 62.0672
lhand 9.10498 12.8271
lfingers 7.12502
lthumb 34.277 39.5489
rfemur 4.11142 -0.327757 19.366
rtibia 1.43125e-014
rfoot -17.652 -14.2284
rtoes -6.14887
lfemur -10.4366 -3.7449 -8.98942
ltibia 22.5765
lfoot -16.8996 8.62395
ltoes -57.5231
